<?xml version="1.0" standalone="yes"?>
<svg xmlns="http://www.w3.org/2000/svg" viewBox="0 0 1024 1024">
  <path style="fill:#fa732c;stroke:none;" d="M0 0L0 1024L1024 1024L1024 0L0 0z"/>
  <g transform="translate(512 512) scale(2.6) translate(-528 -466)">
    <path style="fill:#fef1d8;stroke:none;" d="M511 312C511.001 321.371 513.938 334.094 522 340C521.969 329.121 513.487 322.625 513 312L511 312M501 324C501.236 335.092 510.879 341.188 511 352C519.236 342.527 504.696 333.362 503 324L501 324M484 388L540 388C539.188 383.799 537.058 380.604 534.807 377C531.927 372.388 528.659 367.802 524 364.819C506.796 353.802 488.253 371.606 484 388M474 464C456.351 467.146 438.281 481.719 426 494C418.25 501.75 410.805 510.443 405.337 520C399.451 530.289 395.481 541.527 392.627 553C391.744 556.549 389.417 563.098 392.028 566.397C394.023 568.918 399.198 568 402 568L428 568L538 568L565 568C568.836 568 574.196 567.063 577.791 568.603C580.75 569.872 582.42 573.397 584 576C559.824 579.055 534.373 577 510 577L377 577C378.073 582.304 381.472 585.914 387 586.786C400.994 588.994 416.829 587 431 587L603 587C603.032 598.515 608.012 607.769 620 610.331C624.364 611.264 629.93 609.898 633.911 612.028C637.419 613.905 639.697 617.743 643.004 620.007C651.062 625.525 662.359 624.858 664 614C658.218 613.952 653.441 612.973 649.105 608.812C646.587 606.395 645.083 602.033 641.787 600.603C635.079 597.694 627.781 602.939 621.005 598.411C616.776 595.586 614.334 590.897 613.376 586C612.933 583.738 613.467 580.648 611.972 578.728C610.427 576.743 607.224 576.512 605 575.783C601.374 574.595 598.037 572.836 595.529 569.895C593.438 567.443 591.584 564.278 591.383 561C591.212 558.183 592.604 555.1 591.393 552.379C589.331 547.747 582.754 545.676 580.089 540.999C576.466 534.638 580.875 530.265 580.427 524C580.072 519.046 575.223 515.194 574.623 510C573.892 503.676 579.7 496.738 583.232 492C584.804 489.891 587.647 487.084 587.118 484.174C586.612 481.391 583.113 479.481 580.999 478.029C574.471 473.544 567.204 470.51 560 467.309C556.644 465.818 552.404 464.952 551.318 460.945C550.093 456.425 551 450.658 551 446L551 414C551 409.68 552.779 400.148 549.972 396.603C547.343 393.284 537.786 395 534 395L490 395C486.368 395 477.565 393.4 475.028 396.603C472.105 400.294 474 410.487 474 415L474 464z"/>
    <path style="fill:#fa732c;stroke:none;" d="M487 460C496.738 459.799 506.159 457.887 516 458.004C523.716 458.096 531.265 459.979 539 460C539 447.903 542.161 430.67 535.438 420.004C524.801 403.13 497.54 403.68 488.684 422.17C486.604 426.513 487 431.317 487 436L487 460z"/>
    <path style="fill:#fef1d8;stroke:none;" d="M505 415.742C482.424 424.367 496.695 459.084 519 451.03C530.989 446.701 535.423 429.724 526.481 420.329C522.6 416.251 517.43 415.043 512 415.005C509.685 414.988 507.199 414.902 505 415.742z"/>
    <path style="fill:#fa732c;stroke:none;" d="M511 419C511 427.88 509.949 441.503 523 440L523 438C514.308 433.141 514 428.31 514 419L511 419M470 478C464.866 479.511 460.598 482.613 456 485.283C438.649 495.359 423.112 511.152 413.785 529C410.715 534.874 408.246 541.481 407.008 548C406.554 550.39 405.888 553.408 407.757 555.397C410.059 557.846 414.991 557.006 418 557C420.083 556.996 422.747 557.343 424.683 556.397C427.272 555.13 427.334 551.478 427.753 549C428.888 542.289 430.014 535.385 432.467 529C437.132 516.857 444.522 504.689 453.174 495C458.472 489.066 465.032 484.161 470 478z"/>
  </g>
</svg>
