<?xml version="1.0" standalone="yes"?>
<svg xmlns="http://www.w3.org/2000/svg" viewBox="0 0 2200 1238"><path style="fill:#f87b3f; stroke:none;" d="M0 0L0 1238L2200 1238L2200 0L0 0z"/>
<path style="fill:#fef1d7; stroke:none;" d="M730 194C728.151 208.627 733.491 216.69 740.421 229.039C742.668 233.044 743.118 238.341 747 241C747.743 236.998 748.425 233.026 747.39 229C745.023 219.791 736.903 213.636 733.85 204.911C732.646 201.468 733 197.589 733 194L730 194M713 215C713.001 219.681 712.748 224.477 714.789 228.83C718.467 236.672 726.489 242.042 729.911 250C731.263 253.146 730.998 256.653 731 260C743.396 243.342 717.001 230.232 716 215L713 215M685 320C694.403 322.779 706.218 321 716 321L779 321C777.805 314.821 773.476 309.353 770.265 304C765.076 295.347 758.768 287.127 750 281.839C738.055 274.634 721.301 276.198 710.09 283.999C703.661 288.473 699.615 295.643 695.33 302C691.41 307.816 686.748 313.083 685 320M530 622C611.18 622 691.953 623 773 623L823 623C828.879 623 837.486 620.535 842.957 622.742C847.942 624.754 851.215 632.284 853 637L507 638C508.258 651.885 519.294 654 531 654L604 654L800 654L856 654C862.613 654 873.696 651.865 879.772 654.603C884.799 656.869 883.422 666.297 885.174 670.714C889.36 681.265 895.956 687.185 906 691.96C914.944 696.212 925.104 691.323 934 694.603C940.402 696.964 944.698 704.644 950.039 708.75C957.524 714.504 965.235 716.324 974.089 714.216C977.131 713.492 979.973 713.117 982.147 710.606C984.639 707.726 985.461 703.646 986 700C975.391 700 966.612 698.326 959.188 689.985C955.65 686.01 954.055 677.649 948.895 675.607C944.169 673.737 936.763 676.391 932 677.335C926.919 678.342 920.753 677.773 916 675.568C907.594 671.667 902.133 661.927 901.174 653C900.783 649.366 902.403 642.748 899.972 639.742C898.398 637.795 895.212 638.063 893 637.548C888.328 636.46 883.263 634.825 879 632.61C872.086 629.017 864.69 620.023 864.098 611.999C863.679 606.321 865.554 600.637 866 595C854.111 590.912 840.895 578.654 842.199 565C842.721 559.529 846.969 553.568 846.487 548.17C846.245 545.461 843.821 543.156 842.38 541C839.676 536.954 837.505 532.805 836.515 528C834.205 516.797 841.617 507.569 847.59 498.911C851.235 493.627 854.88 487.928 860 484L860 481C844.239 472.998 830.94 461.286 814 455.266C808.692 453.38 798.444 451.374 797.228 444.981C795.622 436.528 797 426.6 797 418L797 362C797 355.334 797.045 348.666 796.999 342.001C796.982 339.469 797.346 336.101 794.682 334.742C792.218 333.486 788.67 334.001 786 334L766 334L697 334C690.001 334 682.999 333.953 676 334.001C673.047 334.021 669.345 333.689 668.318 337.148C666.103 344.608 668 355.226 668 363L668 418L668 438C667.999 441.089 668.541 444.984 666.397 447.526C662.576 452.056 654.213 453.161 649 455.499C637.419 460.695 625.352 467.688 615 475.039C591.166 491.966 569.306 514.656 554.514 540C548.794 549.799 544.781 560.603 540.434 571C536.772 579.76 534.406 588.766 532.335 598C530.398 606.632 528.338 613.047 530 622z"/>
<path style="fill:#f87b3f; stroke:none;" d="M722 354.515C717.447 355.454 713.642 357.331 709.714 359.719C706.575 361.628 703.722 363.309 701.17 366.019C687.25 380.797 689 398.125 689 417L689 434C689.004 436.168 688.498 439.56 690.028 441.357C691.459 443.039 694.12 442.353 696.001 442.126C701.079 441.511 705.999 440.513 711 439.514C722.46 437.224 738.475 437.795 750 439.59C756.765 440.644 767.147 444.464 773.852 442.667C777.631 441.655 776.994 437.059 777 434L777 406C777 396.804 776.897 386.52 772.956 378C764.263 359.204 741.621 350.469 722 354.515z"/>
<path style="fill:#fef1d7; stroke:none;" d="M724 367.468C703.78 371.289 695.868 397.024 705.1 413.83C711.336 425.184 725.551 430.773 738 428.38C757.779 424.579 771.079 400.112 760.171 382.004C752.851 369.851 737.449 364.926 724 367.468z"/>
<path style="fill:#f87b3f; stroke:none;" d="M729 373C729 381.347 726.287 395.073 731.768 401.985C735.206 406.32 747.256 414.261 750 406C745.583 402.88 739.004 399.147 736.858 393.985C733.689 386.362 740.72 373.649 729 373z"/>
<path style="fill:#fef1d7; stroke:none;" d="M1278 409C1277.52 402.946 1277 397.096 1277 391L1234 391L1234 553C1245.17 553 1256.92 554.031 1268 552.576C1270.88 552.197 1276.04 552.837 1278.4 550.972C1280.56 549.255 1279.99 545.42 1280 543L1280 521L1280 471C1280 458.885 1279.49 447.098 1287.46 437.015C1300.96 419.94 1333.22 423.251 1341.78 444C1346.2 454.717 1344 468.61 1344 480L1344 553L1390 552L1390 478C1390 462.27 1391.29 446.324 1387.24 431C1380.75 406.383 1357.48 389.133 1332 389.001C1324.05 388.959 1315.67 388.134 1308 390.499C1295.69 394.295 1288.18 401.709 1278 409M1160 535C1160 538.983 1158.45 547.12 1161.03 550.397C1163.01 552.921 1169.08 552.833 1172 552.961C1182.42 553.417 1192.64 552.007 1203 552L1203 391L1172 391C1168.38 391 1162.48 389.918 1159.32 392.028C1156.48 393.919 1157.01 398.054 1157 401L1157 424L1157 472C1157 485.279 1157.01 499.058 1148.21 509.921C1135.34 525.814 1105.28 522.728 1098.02 502.996C1092.81 488.843 1094 473.801 1094 459L1094 391L1063 391C1059.5 391 1053.34 389.87 1050.6 392.603C1047.34 395.87 1049 404.759 1049 409L1049 455C1049 485.974 1044.05 525.572 1073 546.211C1078.12 549.862 1084.1 551.491 1090 553.377C1096.12 555.332 1101.5 556.978 1108 556.999C1115.98 557.025 1125.31 556.178 1132.96 553.826C1143.93 550.456 1151.01 541.333 1160 535M1415 519L1415 553L1488 553L1505 552.999C1507.21 552.984 1510.42 553.361 1511.97 551.397C1513.77 549.125 1513 544.693 1513 542C1513 534.28 1512.02 526.688 1512 519C1506 519 1500 519.041 1494 518.999C1491.61 518.983 1488.58 519.269 1486.74 517.397C1484.89 515.505 1485.04 512.441 1485 510C1484.92 504.336 1485 498.665 1485 493L1485 425L1502 424.999C1504.43 424.986 1507.46 425.274 1509.57 423.821C1511.81 422.278 1511.91 419.461 1511.98 416.999C1512.17 411.015 1512.04 404.987 1512 399C1511.98 396.791 1512.36 393.583 1510.4 392.028C1506.56 388.99 1495.71 391 1491 391L1438 391C1432.74 391 1420.65 388.782 1416.6 392.742C1414.73 394.575 1415.02 397.609 1415 400C1414.96 405.333 1414.99 410.667 1415 416C1415 418.236 1414.53 421.508 1416.03 423.397C1420.91 429.56 1435.13 420.393 1439.97 427.434C1442.94 431.741 1441 441.941 1441 447L1441 497C1441 501.872 1443.14 513.596 1439.4 517.258C1437.5 519.11 1434.44 518.962 1432 518.996C1426.34 519.075 1420.67 519 1415 519z"/>
<path style="fill:#f87b3f; stroke:none;" d="M661 472C653.571 474.048 647.562 478.687 640.911 482.389C608.733 500.298 585.063 527.301 567.137 559.001C562.039 568.018 556.415 580.619 555.184 591C554.783 594.383 554.446 600.663 557.564 602.972C559.537 604.433 562.702 603.995 565 604C570.426 604.011 575.613 603.47 581 603.089C583.447 602.917 587.229 603.596 588.972 601.397C590.307 599.713 589.964 597.001 590.169 595C590.64 590.393 590.771 585.459 592.04 581C596.868 564.036 602.106 547.628 610.326 532C618.114 517.195 629.286 502.855 641.004 491C644.639 487.322 648.27 483.567 652.286 480.298C655.595 477.603 659.007 475.848 661 472z"/>
<path style="fill:#fef1d7; stroke:none;" d="M1518 701L1518 703C1490.77 713.943 1484.89 753.076 1506.09 772.561C1524.3 789.294 1549.37 792 1573 792C1584.58 792 1596.77 791.305 1608 788.416C1616 786.356 1623.44 784.433 1631 780.916C1633.5 779.754 1637.27 778.473 1638.35 775.661C1639.51 772.669 1637.32 768.813 1636.42 766C1634.07 758.574 1631.65 751.312 1629 744C1621.21 745.324 1614.62 749.81 1607 751.661C1594.32 754.741 1581.95 755 1569 755C1559.41 755 1547.82 754.527 1541.51 745.96C1535.24 737.43 1541.98 726.531 1551 724.029C1569.84 718.802 1592.53 722 1612 722L1612 689L1579 689C1570.71 689 1561.85 689.356 1554 686.121C1540.78 680.67 1544.06 663.761 1556 659.109C1570.94 653.287 1587.79 656.461 1603 659.014C1608.05 659.861 1616.61 665.468 1621.58 663.356C1624.86 661.964 1626.5 655.063 1627.63 652C1629.24 647.641 1634.59 637.785 1631.96 633.39C1630.26 630.554 1625.92 629.012 1623 627.9C1615.44 625.023 1607.87 623.961 1600 622.675C1574.85 618.566 1543.35 617.868 1521 632.609C1501.3 645.598 1491.8 670.771 1506.45 690.996C1509.61 695.365 1513.04 698.79 1518 701M1341 674C1348.22 672.305 1355.15 667.652 1362 664.721C1369.48 661.526 1377.93 660.005 1386 660L1386 756L1386 779C1386 781.617 1385.25 786.109 1387.6 787.972C1390.38 790.175 1396.67 789 1400 789L1431 789C1431 778.294 1431.98 767.649 1432 757C1432.03 736.704 1431 716.361 1431 696L1431 672C1431 668.887 1430.16 664.045 1432.03 661.333C1434.41 657.879 1439.87 660.401 1443 661.269C1449.2 662.994 1455.28 665.526 1461 668.489C1464.3 670.198 1468.07 673.203 1471.9 673.461C1475.83 673.727 1477.1 668.917 1478.38 666.039C1481.91 658.099 1486.22 649.515 1488 641C1476.76 635.654 1466.01 629.898 1454 626.37C1434.43 620.618 1412.18 619.91 1392 621.83C1383.09 622.679 1374.74 622.954 1366 625.265C1356.68 627.73 1347.76 630.693 1339 634.795C1335.83 636.277 1330.76 638.362 1329.73 642.093C1328.95 644.953 1331.03 648.397 1332 651C1334.9 658.741 1337.95 666.352 1341 674M1050.6 625.028C1046.85 628.001 1049 640.619 1049 645L1049 702L1049 764L1049 780C1049.01 782.293 1048.65 785.467 1050.18 787.397C1052.03 789.739 1056.39 788.999 1059 789L1084 789L1132 789C1151.83 789 1172.81 788.385 1189 775.231C1205.75 761.62 1210.11 734.119 1195.78 717.001C1192.22 712.749 1187.63 709.603 1183 706.63C1181.28 705.522 1178.02 704.294 1177.63 701.971C1177.28 699.864 1179.67 698.52 1181.02 697.406C1184.08 694.889 1187.04 692.236 1189.36 689C1196.49 679.052 1198.41 664.67 1193.71 653.286C1188.02 639.504 1174.83 631.489 1161 627.846C1137.46 621.643 1112.15 624 1088 624L1061 624C1058.09 624 1053.05 623.088 1050.6 625.028M1223 624L1223 659L1249 659L1249 753L1232 753C1229.76 753.005 1226.49 752.532 1224.6 754.028C1222.44 755.745 1223.01 759.58 1223 762C1222.99 768.331 1222.92 774.67 1223 781C1223.04 783.509 1222.8 787.058 1225.43 788.397C1227.81 789.6 1231.43 789 1234 789L1251 789C1272.26 789 1293.75 789.917 1315 788.981C1324.65 788.555 1321 771.012 1321 764C1321 761.35 1321.77 756.967 1319.97 754.742C1318.39 752.79 1315.24 753.035 1313 753.004C1306.67 752.915 1300.33 753 1294 753L1294 659L1311 658.999C1313.29 658.987 1316.47 659.349 1318.4 657.821C1320.74 655.966 1320 651.607 1320 649L1320 625C1308.65 622.892 1296.52 624 1285 624L1223 624z"/>
<path style="fill:#f87b3f; stroke:none;" d="M1094 689C1105.08 689 1115.97 689.173 1127 689.911C1133.96 690.376 1141.63 688.52 1146.85 683.62C1152.1 678.7 1152.4 667.684 1147.57 662.339C1139.29 653.173 1124.06 655 1113 655C1108.91 655 1097.83 653.061 1095.03 656.603C1093.23 658.876 1094 663.307 1094 666L1094 689M1094 721L1095 756C1112.5 756 1134.38 759.533 1150.91 752.867C1160.41 749.035 1161.99 734.591 1155.31 727.637C1151.77 723.951 1145.77 722.852 1141 721.746C1135.2 720.401 1128.92 721 1123 721L1094 721z"/>
<path style="fill:#fef1d7; stroke:none;" d="M954 967L958 967C958 960.9 956.299 951.68 959.318 946.174C963.514 938.521 975.009 938.647 978.258 947.005C980.466 952.687 979 960.971 979 967C985.763 964.755 984.28 946.985 980.486 942.105C974.235 934.064 965.462 937.637 958 941L958 925C953.013 926.655 954 931.46 954 936L954 967M1377 925L1377 929L1381 929C1380.16 926.374 1379.63 925.839 1377 925M1395 925L1395 967C1397.03 965.774 1397.33 965.297 1398 963C1402.34 964.735 1406.11 967.216 1411 966.881C1423.67 966.014 1431.5 949.593 1420.81 940.789C1413.82 935.032 1406.58 937.31 1399 940L1399 925L1395 925M738 927L738 930L753 930L753 957C753.007 961.256 752.469 965.407 757 967L756 930L771 930L771 927L738 927M1085 960C1077.27 960.796 1072.09 965.689 1064 962.597C1051.03 957.64 1049.17 939.448 1061 932.148C1068.03 927.815 1074.73 931.517 1082 932C1079.17 927.717 1073.9 926.936 1069 927.019C1057.07 927.223 1047.18 937.759 1049.34 950C1051.46 961.974 1063.27 970.046 1075 966.84C1079.12 965.713 1083.5 964.209 1085 960M1329 927C1329.82 931.125 1332.23 934.256 1334.06 938.004C1337.1 944.266 1339.7 950.744 1342.76 957C1344 959.548 1345.94 966.308 1349.87 965.248C1353.44 964.284 1354.45 958.936 1355.61 956C1359.47 946.233 1365.23 937.147 1368 927C1363.08 928.539 1362.25 932.583 1360.41 937C1357.11 944.882 1354.45 955.125 1348 961C1346.19 952.554 1341.05 943.775 1337.26 936C1335.16 931.699 1333.81 928.391 1329 927M850 930C849.772 934.142 849.153 936.688 845 938C846.751 939.255 847.857 939.614 850 940C850 946.171 847.817 957.466 850.889 962.921C853.546 967.641 862.341 968.672 864 963C861.549 963.288 858.563 964.1 856.279 962.782C850.513 959.454 853 945.602 853 940L862 940L862 937L853 937L853 930L850 930M930 930L930 937L926 937L926 940L930 940C930 946.637 928.052 956.992 931.318 962.956C934.344 968.483 941.858 969.449 944 963C941.605 963.294 938.519 964.226 936.279 962.933C930.515 959.607 933 945.59 933 940L943 940L943 937L933 937L933 930L930 930M801 963L801 967L804 967L804 938C801.636 938.482 801.482 938.636 801 941C794.642 939.041 788.847 935.494 782.001 938.032C770.061 942.459 771.332 959.911 781.04 965.991C788.044 970.377 794.446 965.463 801 963M814 962C817.905 969.151 837.996 969.824 837.718 959.011C837.498 950.438 824.611 952.8 820.362 947.772C815.45 941.961 824.797 939.709 829 940.39C831.724 940.831 834.234 941.725 837 942C834.44 934.644 816.975 934.571 815.343 943.093C813.029 955.182 827.811 950.907 832.623 956.317C838.171 962.553 825.677 964.297 822 963.791C819.292 963.418 816.697 962.457 814 962M897 962C887.878 964.085 877.404 965.909 875 954C883.445 953.994 891.54 952.001 900 952C899.898 947.642 899.298 943.592 895.786 940.569C887.985 933.853 873.823 936.283 871.483 947C870.064 953.498 871.881 960.247 877.104 964.581C882.926 969.412 893.262 968.95 897 962M1020 961C1010.91 963.055 1000.61 966.942 998 954C1006.09 953.995 1013.93 952.067 1022 952C1021.98 947.41 1021.8 943.553 1017.94 940.43C1010.59 934.484 996.125 936.597 994.228 947C992.935 954.092 994.784 961.092 1001.01 965.181C1007.02 969.124 1017.51 968.751 1020 961M1119 963C1119.58 965.698 1120.26 965.789 1123 966L1122 938C1119.64 938.482 1119.48 938.636 1119 941C1112.13 938.296 1104.02 934.243 1097.19 939.653C1087.69 947.182 1091.87 965.373 1104 967.566C1109.32 968.527 1114.25 964.727 1119 963M1140 941C1139 939.076 1138.92 938.901 1137 938L1137 967L1140 967C1140 960.217 1138.5 951.303 1142 945.185C1146.52 937.287 1157.48 940.144 1160.4 948.001C1162.4 953.407 1161 961.281 1161 967L1164 967C1164 960.978 1162.22 951.509 1165.18 946.094C1168.51 940.007 1177.67 938.219 1181.97 944.133C1186.64 950.561 1180.16 962.564 1187 967C1187 959.817 1190.01 949.742 1186.43 943.185C1181.88 934.85 1168.36 935.163 1164 943L1162 943C1157.19 934.541 1146.97 937.108 1140 941M1205 942L1205 938L1202 938L1202 979L1205 979L1205 963C1208.93 964.629 1212.56 967.761 1217 967.721C1237.1 967.542 1236.82 935.812 1216 937.109C1211.68 937.378 1208.52 939.756 1205 942M1243 937C1243 947.349 1239.91 966.765 1255 966.98C1256.67 967.004 1258.38 966.95 1260 966.491C1262.49 965.783 1264.74 964.231 1267 963C1268.02 965.481 1268.44 966.264 1271 967L1271 938L1267 938C1267 944.231 1268.69 953.476 1265.14 958.942C1261.32 964.843 1251.76 965.594 1248.32 958.956C1245.25 953.051 1247 943.484 1247 937L1243 937M1282 963C1287.71 968.135 1307.73 969.631 1304.67 957.105C1302.93 949.973 1292.56 952.853 1288.33 948.566C1282.29 942.444 1292.41 939.601 1297 940.514C1299.36 940.984 1301.61 941.649 1304 942C1301.27 934.199 1283.83 935.321 1282.38 944.005C1280.63 954.496 1296.26 951.831 1300.34 957.379C1304.31 962.783 1293.41 965.199 1290 964.62C1287.27 964.158 1284.77 963.276 1282 963M1377 937C1377 946.497 1375.3 957.873 1378 967L1380 967C1382.69 957.887 1381.18 946.316 1380 937L1377 937M1460 961C1450.36 963.393 1442.15 966.21 1438 954C1446.37 953.34 1454.89 953.278 1463 951C1461.9 945.333 1460.63 940.959 1455 938.279C1444.98 933.512 1433.19 942.098 1434.25 953C1435.35 964.413 1455.37 975.443 1460 961z"/>
<path style="fill:#f87b3f; stroke:none;" d="M785.004 940.559C770.421 944.355 777.261 967.372 791.999 963.569C807.884 959.471 800.682 936.477 785.004 940.559M874 951L884 951C885.994 951 888.003 951.069 889.995 950.981C895.585 950.734 897.402 946.355 892.852 942.434C885.186 935.827 874.601 942.057 874 951M997 951L1006 951L1012 950.995C1016.37 950.913 1021.46 948.283 1016.68 943.8C1011.89 939.305 1003.12 938.859 998.893 944.339C997.335 946.358 997.164 948.565 997 951M1103 940.573C1088.16 944.828 1096.05 967.739 1111 963.427C1126.14 959.061 1118.26 936.198 1103 940.573M1212.01 940.938C1197.75 947.255 1207.14 969.12 1221.83 963.272C1236.22 957.544 1226.51 934.521 1212.01 940.938M1407 940.483C1391.99 943.748 1398.22 966.94 1413 963.605C1427.94 960.234 1422.49 937.115 1407 940.483M1438 951C1445.38 951 1452.72 951.351 1460 950C1458.48 936.509 1438.45 937.016 1438 951z"/>
</svg>
